<?xml version="1.0" encoding="UTF-8" standalone="no"?>
<!DOCTYPE svg PUBLIC "-//W3C//DTD SVG 1.1//EN" "http://www.w3.org/Graphics/SVG/1.1/DTD/svg11.dtd">
<svg width="100%" height="100%" viewBox="0 0 224 169" version="1.1" xmlns="http://www.w3.org/2000/svg" xmlns:xlink="http://www.w3.org/1999/xlink" xml:space="preserve" xmlns:serif="http://www.serif.com/" style="fill-rule:evenodd;clip-rule:evenodd;stroke-linejoin:round;stroke-miterlimit:1.41421;">
    <g transform="matrix(1,0,0,1,-354.586,-266.706)">
        <g transform="matrix(1,0,0,1,354.585,266.706)">
            <g opacity="0.149994">
                <g transform="matrix(-41.3954,19.7446,19.7446,41.3954,160.43,79.8753)">
                    <clipPath id="_clip1">
                        <path d="M1.529,0.257L0.092,0.942L-0.325,0.069L1.112,-0.617L1.529,0.257Z" clip-rule="nonzero"/>
                    </clipPath>
                    <g clip-path="url(#_clip1)">
                        <path d="M-0.01,0.272L0.232,0.032C0.264,0.054 0.305,0.059 0.342,0.041C0.39,0.018 0.414,-0.035 0.402,-0.085L0.798,-0.264C0.829,-0.22 0.887,-0.203 0.937,-0.227C0.937,-0.227 0.937,-0.227 0.937,-0.227L1.342,0.322C0.974,0.024 0.54,0.009 -0.008,0.27L-0.01,0.272Z" style="fill:url(#_Linear2);fill-rule:nonzero;"/>
                    </g>
                </g>
            </g>
        </g>
        <g transform="matrix(1,0,0,1,354.585,266.706)">
            <g opacity="0.190002">
                <g transform="matrix(166.275,-49.2528,-49.2528,-166.275,87.7677,103.74)">
                    <clipPath id="_clip3">
                        <path d="M-0.184,-0.049L0.457,-0.238L0.53,0.008L-0.111,0.197L-0.184,-0.049Z" clip-rule="nonzero"/>
                    </clipPath>
                    <g clip-path="url(#_clip3)">
                        <path d="M0.456,-0.058L0.382,-0.005C0.378,-0.008 0.374,-0.011 0.369,-0.012L0.36,-0.013C0.358,-0.013 0.356,-0.013 0.353,-0.012L0.353,-0.012C0.35,-0.011 0.347,-0.01 0.345,-0.008C0.345,-0.008 0.344,-0.007 0.344,-0.007L0.337,0L0.333,0.009C0.332,0.012 0.332,0.015 0.332,0.018L0.221,0.049C0.215,0.036 0.201,0.029 0.187,0.033C0.179,0.036 0.173,0.041 0.17,0.047L-0.132,-0.058C-0.078,-0.052 -0.03,-0.047 0.013,-0.042C0.195,-0.02 0.288,-0.009 0.456,-0.058Z" style="fill:url(#_Linear4);fill-rule:nonzero;"/>
                    </g>
                </g>
            </g>
        </g>
        <g transform="matrix(1,0,0,1,354.585,266.706)">
            <g opacity="0.460007">
                <g transform="matrix(-10.6586,-43.2629,-43.2629,10.6586,92.9994,60.3306)">
                    <clipPath id="_clip5">
                        <path d="M-0.302,0.983L-0.68,-0.551L1.095,-0.988L1.473,0.546L-0.302,0.983Z" clip-rule="nonzero"/>
                    </clipPath>
                    <g clip-path="url(#_clip5)">
                        <path d="M-0.531,-0.379L1.06,-0.379C0.163,-0.136 -0.297,0.252 -0.313,0.778L-0.595,-0.297C-0.561,-0.313 -0.538,-0.344 -0.531,-0.379Z" style="fill:url(#_Linear6);fill-rule:nonzero;"/>
                    </g>
                </g>
            </g>
        </g>
        <g transform="matrix(1,0,0,1,354.585,266.706)">
            <g opacity="0.880005">
                <g transform="matrix(-55.687,26.5613,26.5613,55.687,175.889,94.9176)">
                    <clipPath id="_clip7">
                        <path d="M1.33,-0.02L0.209,0.514L-0.16,-0.259L0.961,-0.794L1.33,-0.02Z" clip-rule="nonzero"/>
                    </clipPath>
                    <g clip-path="url(#_clip7)">
                        <path d="M0.105,-0.105C0.104,-0.108 0.101,-0.112 0.099,-0.115L0.291,-0.304L0.291,-0.304C0.302,-0.296 0.315,-0.291 0.329,-0.29C0.33,-0.29 0.331,-0.29 0.332,-0.29C0.337,-0.29 0.343,-0.29 0.348,-0.29C0.35,-0.291 0.351,-0.291 0.353,-0.291C0.36,-0.293 0.366,-0.294 0.372,-0.297L0.372,-0.297C0.38,-0.301 0.387,-0.307 0.394,-0.313C0.395,-0.313 0.395,-0.314 0.396,-0.315C0.402,-0.321 0.407,-0.328 0.41,-0.335C0.411,-0.336 0.411,-0.337 0.412,-0.339C0.415,-0.346 0.417,-0.354 0.418,-0.362C0.419,-0.363 0.418,-0.364 0.419,-0.365C0.419,-0.373 0.419,-0.382 0.417,-0.391C0.417,-0.391 0.417,-0.391 0.417,-0.391L0.713,-0.522C0.736,-0.491 0.778,-0.479 0.814,-0.497C0.816,-0.497 0.816,-0.498 0.817,-0.498L1.172,-0.013C1.157,0.003 1.148,0.025 1.15,0.048C0.711,0.148 0.376,0.121 0.107,-0.038C0.115,-0.059 0.116,-0.083 0.105,-0.105Z" style="fill:url(#_Linear8);fill-rule:nonzero;"/>
                    </g>
                </g>
            </g>
        </g>
        <g transform="matrix(1,0,0,1,354.585,266.706)">
            <g opacity="0.880005">
                <g transform="matrix(33.2168,-40.1522,-40.1522,-33.2168,116.429,81.1074)">
                    <clipPath id="_clip9">
                        <path d="M-0.214,0.176L0.41,-0.578L0.941,-0.139L0.317,0.615L-0.214,0.176Z" clip-rule="nonzero"/>
                    </clipPath>
                    <g clip-path="url(#_clip9)">
                        <path d="M0.371,-0.386C0.409,-0.277 0.413,-0.071 0.308,0.384L0.039,0.021C0.04,0.02 0.042,0.019 0.043,0.017C0.073,-0.019 0.072,-0.071 0.044,-0.106L0.294,-0.395C0.318,-0.382 0.346,-0.379 0.371,-0.386Z" style="fill:url(#_Linear10);fill-rule:nonzero;"/>
                    </g>
                </g>
            </g>
        </g>
        <g transform="matrix(1,0,0,1,354.585,266.706)">
            <g opacity="0.25">
                <g transform="matrix(-147.591,22.8482,22.8482,147.591,226.592,85.8693)">
                    <clipPath id="_clip11">
                        <path d="M1.166,0.121L0.056,0.293L0,-0.071L1.11,-0.242L1.166,0.121Z" clip-rule="nonzero"/>
                    </clipPath>
                    <g clip-path="url(#_clip11)">
                        <path d="M0.085,0.076C0.085,0.073 0.083,0.069 0.082,0.066C0.172,-0.005 0.233,-0.052 0.28,-0.06C0.303,-0.063 0.323,-0.056 0.342,-0.038C0.335,-0.031 0.331,-0.021 0.333,-0.01C0.336,0.008 0.353,0.021 0.372,0.018C0.39,0.015 0.403,-0.002 0.4,-0.021C0.4,-0.022 0.399,-0.024 0.399,-0.025L0.497,-0.077C0.505,-0.068 0.516,-0.063 0.529,-0.065C0.545,-0.068 0.557,-0.081 0.557,-0.097L0.69,-0.115C0.695,-0.099 0.711,-0.089 0.727,-0.091C0.736,-0.093 0.744,-0.098 0.749,-0.105L1.097,0.072C1.096,0.076 1.095,0.081 1.096,0.086C1.096,0.087 1.096,0.087 1.096,0.087C1.012,0.119 0.935,0.143 0.86,0.159C0.854,0.145 0.839,0.136 0.823,0.138C0.806,0.141 0.794,0.155 0.794,0.172C0.79,0.172 0.786,0.173 0.782,0.174L0.781,0.174C0.557,0.208 0.329,0.18 0.085,0.087C0.086,0.084 0.086,0.08 0.085,0.076Z" style="fill:url(#_Linear12);fill-rule:nonzero;"/>
                    </g>
                </g>
            </g>
        </g>
        <g transform="matrix(53.5041,97.3236,97.3236,-53.5041,435.202,259.367)">
            <g>
                <clipPath id="_clip13">
                    <path d="M0.762,-0.319L1.043,0.193L0.376,0.56L0.094,0.048L0.762,-0.319Z" clip-rule="nonzero"/>
                </clipPath>
                <g clip-path="url(#_clip13)">
                    <path d="M0.199,0.083L0.837,-0.088C0.838,-0.087 0.838,-0.086 0.838,-0.085C0.849,-0.066 0.872,-0.057 0.892,-0.064L0.975,0.096C0.96,0.108 0.954,0.128 0.96,0.146C0.805,0.22 0.483,0.159 0.199,0.089C0.199,0.087 0.199,0.085 0.199,0.083Z" style="fill:url(#_Linear14);fill-rule:nonzero;"/>
                </g>
            </g>
        </g>
        <g transform="matrix(1,0,0,1,354.585,266.706)">
            <g opacity="0.419998">
                <g transform="matrix(66.7886,0,0,-66.7886,50.3796,78.9655)">
                    <path d="M0.925,-0.087L0.169,-0.076C0.543,-0.163 0.771,-0.366 0.862,-0.691C0.864,-0.691 0.865,-0.69 0.867,-0.69C0.867,-0.69 0.867,-0.69 0.867,-0.69L0.972,-0.145C0.948,-0.135 0.93,-0.113 0.925,-0.087Z" style="fill:url(#_Linear15);fill-rule:nonzero;"/>
                </g>
            </g>
        </g>
        <g transform="matrix(1,0,0,1,416.285,393.385)">
            <circle cx="-0.001" cy="-3.002" r="3.002" style="fill:white;"/>
        </g>
        <g transform="matrix(1,0,0,1,575.411,368.805)">
            <ellipse cx="0" cy="-3.002" rx="3.003" ry="3.002" style="fill:white;"/>
        </g>
        <g transform="matrix(1,0,0,1,526.734,361.689)">
            <ellipse cx="0.001" cy="-3.001" rx="3.002" ry="3.001" style="fill:white;"/>
        </g>
        <g transform="matrix(1,0,0,1,471.753,353.604)">
            <circle cx="-0.001" cy="-3.002" r="3.002" style="fill:white;"/>
        </g>
        <g transform="matrix(1,0,0,1,404.965,352.884)">
            <path d="M0,-6.254C-1.655,-6.254 -3.001,-4.908 -3.001,-3.253C-3.001,-1.598 -1.655,0 0,0C1.655,0 3.002,-1.598 3.002,-3.253C3.002,-4.908 1.655,-6.254 0,-6.254" style="fill:white;fill-rule:nonzero;"/>
        </g>
        <g transform="matrix(1,0,0,1,451.824,272.71)">
            <ellipse cx="0" cy="-3.002" rx="3.001" ry="3.002" style="fill:white;"/>
        </g>
        <g transform="matrix(1,0,0,1,407.966,349.883)">
            <path d="M0,-0.252C0,-1.906 -1.346,-3.253 -3.002,-3.253C-4.656,-3.253 -6.002,-1.906 -6.002,-0.252C-6.002,1.403 -4.656,3.001 -3.002,3.001C-1.346,3.001 0,1.403 0,-0.252" style="fill:rgb(87,77,102);fill-rule:nonzero;"/>
        </g>
        <g transform="matrix(1,0,0,1,419.286,390.382)">
            <path d="M0,0.002C0,-1.653 -1.345,-3.001 -3.001,-3.001C-4.656,-3.001 -6.004,-1.653 -6.004,0.002C-6.004,1.656 -4.656,3.003 -3.001,3.003C-1.345,3.003 0,1.656 0,0.002" style="fill:rgb(87,77,102);fill-rule:nonzero;"/>
        </g>
        <g transform="matrix(1,0,0,1,454.825,269.709)">
            <path d="M0,-0.002C0,-1.656 -1.345,-3.003 -3.001,-3.003C-4.656,-3.003 -6.001,-1.656 -6.001,-0.002C-6.001,1.653 -4.656,3.001 -3.001,3.001C-1.345,3.001 0,1.653 0,-0.002" style="fill:rgb(87,77,102);fill-rule:nonzero;"/>
        </g>
        <g transform="matrix(1,0,0,1,465.862,396.853)">
            <path d="M0,-0.002C0,-1.656 -1.347,-3.003 -3.003,-3.003C-4.658,-3.003 -6.005,-1.656 -6.005,-0.002C-6.005,1.653 -4.658,3.001 -3.003,3.001C-1.347,3.001 0,1.653 0,-0.002" style="fill:rgb(87,77,102);fill-rule:nonzero;"/>
        </g>
        <g transform="matrix(1,0,0,1,474.754,350.603)">
            <path d="M0,-0.002C0,-1.656 -1.345,-3.003 -3.001,-3.003C-4.656,-3.003 -6.004,-1.656 -6.004,-0.002C-6.004,1.653 -4.656,3.001 -3.001,3.001C-1.345,3.001 0,1.653 0,-0.002" style="fill:rgb(87,77,102);fill-rule:nonzero;"/>
        </g>
        <g transform="matrix(1,0,0,1,504.672,349.957)">
            <path d="M0,-0.002C0,-1.656 -1.347,-3.003 -3.003,-3.003C-4.658,-3.003 -6.004,-1.656 -6.004,-0.002C-6.004,1.653 -4.658,3.001 -3.003,3.001C-1.347,3.001 0,1.653 0,-0.002" style="fill:rgb(87,77,102);fill-rule:nonzero;"/>
        </g>
        <g transform="matrix(1,0,0,1,529.737,358.687)">
            <path d="M0,0C0,-1.654 -1.347,-3.001 -3.003,-3.001C-4.658,-3.001 -6.004,-1.654 -6.004,0C-6.004,1.654 -4.658,3.001 -3.003,3.001C-1.347,3.001 0,1.654 0,0" style="fill:rgb(87,77,102);fill-rule:nonzero;"/>
        </g>
        <g transform="matrix(1,0,0,1,578.414,365.802)">
            <path d="M0,0.002C0,-1.653 -1.347,-3.001 -3.002,-3.001C-4.658,-3.001 -6.005,-1.653 -6.005,0.002C-6.005,1.656 -4.658,3.003 -3.002,3.003C-1.347,3.003 0,1.656 0,0.002" style="fill:rgb(87,77,102);fill-rule:nonzero;"/>
        </g>
        <g transform="matrix(1,0,0,1,360.332,416.35)">
            <path d="M0,18.772L0,5.055L4.659,5.055L4.659,4.066L-5.746,4.066L-5.746,5.055L-1.087,5.055L-1.087,18.772L0,18.772ZM7.884,18.772L7.884,11.716L15.46,11.716L15.46,18.772L16.547,18.772L16.547,4.066L15.46,4.066L15.46,10.715L7.884,10.715L7.884,4.066L6.797,4.066L6.797,18.772L7.884,18.772ZM25.296,18.945C26.969,18.945 28.19,18.525 28.96,17.685C29.731,16.844 30.116,15.526 30.116,13.73L30.116,4.066L29.053,4.066L29.053,13.878C29.053,15.304 28.758,16.342 28.17,16.992C27.58,17.643 26.623,17.969 25.296,17.969C23.962,17.969 23,17.643 22.411,16.992C21.822,16.342 21.527,15.304 21.527,13.878L21.527,4.066L20.427,4.066L20.427,13.73C20.427,15.526 20.819,16.844 21.601,17.685C22.384,18.525 23.616,18.945 25.296,18.945M23.01,1.57C23.274,1.57 23.486,1.492 23.647,1.335C23.807,1.179 23.888,0.969 23.888,0.705C23.888,0.441 23.807,0.229 23.647,0.068C23.486,-0.092 23.274,-0.173 23.01,-0.173C22.746,-0.173 22.534,-0.092 22.374,0.068C22.213,0.229 22.133,0.441 22.133,0.705C22.133,0.969 22.213,1.179 22.374,1.335C22.534,1.492 22.746,1.57 23.01,1.57M27.57,1.57C27.834,1.57 28.046,1.492 28.207,1.335C28.367,1.179 28.448,0.969 28.448,0.705C28.448,0.441 28.367,0.229 28.207,0.068C28.046,-0.092 27.834,-0.173 27.57,-0.173C27.306,-0.173 27.094,-0.092 26.934,0.068C26.773,0.229 26.693,0.441 26.693,0.705C26.693,0.969 26.773,1.179 26.934,1.335C27.094,1.492 27.306,1.57 27.57,1.57M43.981,18.772L39.1,12.284C40.311,12.037 41.223,11.567 41.837,10.875C42.451,10.183 42.749,9.277 42.733,8.157C42.733,5.331 40.949,3.918 37.382,3.918C36.311,3.918 35.186,4.013 34.008,4.202L34.008,18.772L35.096,18.772L35.096,12.432C35.499,12.474 36.084,12.494 36.851,12.494C37.304,12.494 37.691,12.478 38.012,12.445L42.758,18.772L43.981,18.772ZM36.801,11.567C36.332,11.567 35.763,11.543 35.096,11.493L35.096,5.03C35.821,4.923 36.583,4.869 37.382,4.869C38.89,4.869 39.979,5.137 40.651,5.673C41.322,6.208 41.658,7.04 41.658,8.169C41.658,9.331 41.27,10.188 40.496,10.739C39.722,11.291 38.49,11.567 36.801,11.567M47.565,4.066L46.478,4.066L46.478,18.772L47.565,18.772L47.565,4.066ZM60.54,16.931L52.705,4.066L51.556,4.066L51.556,18.772L52.606,18.772L52.606,5.907L60.441,18.772L61.59,18.772L61.59,4.066L60.54,4.066L60.54,16.931ZM73.318,11.629L73.318,17.771C72.799,17.853 72.234,17.895 71.625,17.895C70.315,17.895 69.246,17.691 68.418,17.283C67.59,16.875 66.968,16.2 66.552,15.256C66.136,14.313 65.928,13.038 65.928,11.431C65.928,9.8 66.132,8.503 66.539,7.539C66.947,6.575 67.536,5.889 68.307,5.481C69.077,5.073 70.051,4.869 71.229,4.869C72.21,4.869 73.186,5.018 74.158,5.314L74.158,4.289C73.268,4.025 72.288,3.893 71.217,3.893C69.124,3.893 67.528,4.482 66.428,5.66C65.328,6.839 64.778,8.762 64.778,11.431C64.778,13.236 65.036,14.686 65.551,15.781C66.066,16.877 66.826,17.668 67.831,18.154C68.836,18.64 70.109,18.883 71.649,18.883C72.547,18.883 73.458,18.797 74.38,18.624L74.38,11.629L73.318,11.629ZM79.002,11.728L85.008,11.728L85.008,10.752L79.002,10.752L79.002,5.042L85.984,5.042L85.984,4.066L77.915,4.066L77.915,18.772L86.083,18.772L86.083,17.796L79.002,17.796L79.002,11.728ZM97.514,16.931L89.679,4.066L88.53,4.066L88.53,18.772L89.58,18.772L89.58,5.907L97.415,18.772L98.564,18.772L98.564,4.066L97.514,4.066L97.514,16.931Z" style="fill:rgb(62,135,133);fill-rule:nonzero;"/>
        </g>
        <g transform="matrix(1,0,0,1,367.262,411.278)">
            <path d="M0,-20.956L-10.556,-20.956L-10.556,0.043L-9.294,0.043L-9.294,-10.116L-1.291,-10.116L-1.291,-11.294L-9.294,-11.294L-9.294,-19.778L0,-19.778L0,-20.956ZM6.739,0.199C8.792,0.199 10.502,-0.167 11.869,-0.9C13.235,-1.633 14.269,-2.785 14.969,-4.355C15.669,-5.925 16.019,-7.959 16.019,-10.456C16.019,-14.098 15.286,-16.792 13.82,-18.537C12.353,-20.282 10.13,-21.155 7.151,-21.155C5.94,-21.155 4.578,-21.027 3.065,-20.772L3.065,-0.014C4.559,0.128 5.784,0.199 6.739,0.199M6.853,-0.978C5.945,-0.978 5.103,-1.021 4.327,-1.106L4.327,-19.778C5.387,-19.92 6.328,-19.991 7.151,-19.991C8.891,-19.991 10.315,-19.662 11.422,-19.005C12.528,-18.347 13.351,-17.319 13.89,-15.919C14.43,-14.519 14.699,-12.698 14.699,-10.456C14.699,-8.186 14.413,-6.356 13.841,-4.965C13.268,-3.575 12.408,-2.563 11.258,-1.929C10.109,-1.295 8.641,-0.978 6.853,-0.978M28.817,-4.128L21.694,-20.956L20.247,-20.956L20.247,0.043L21.453,0.043L21.453,-18.516L28.15,-2.809L29.427,-2.809L36.124,-18.615L36.124,0.043L37.33,0.043L37.33,-20.956L35.883,-20.956L28.817,-4.128Z" style="fill:rgb(82,190,149);fill-rule:nonzero;"/>
        </g>
    </g>
    <defs>
        <linearGradient id="_Linear2" x1="0" y1="0" x2="1" y2="0" gradientUnits="userSpaceOnUse" gradientTransform="matrix(1,-5.55112e-17,-5.55112e-17,-1,0,0.0580289)"><stop offset="0" style="stop-color:rgb(87,77,102);stop-opacity:1"/><stop offset="0.33" style="stop-color:rgb(87,77,102);stop-opacity:1"/><stop offset="1" style="stop-color:rgb(196,255,84);stop-opacity:1"/></linearGradient>
        <linearGradient id="_Linear4" x1="0" y1="0" x2="1" y2="0" gradientUnits="userSpaceOnUse" gradientTransform="matrix(1,0,0,-1,5.55112e-17,-0.00972239)"><stop offset="0" style="stop-color:rgb(87,77,102);stop-opacity:1"/><stop offset="1" style="stop-color:rgb(196,255,84);stop-opacity:1"/></linearGradient>
        <linearGradient id="_Linear6" x1="0" y1="0" x2="1" y2="0" gradientUnits="userSpaceOnUse" gradientTransform="matrix(-0.82943,-0.55861,-0.55861,0.82943,0.0317658,0.00969957)"><stop offset="0" style="stop-color:rgb(87,77,102);stop-opacity:1"/><stop offset="1" style="stop-color:rgb(196,255,84);stop-opacity:1"/></linearGradient>
        <linearGradient id="_Linear8" x1="0" y1="0" x2="1" y2="0" gradientUnits="userSpaceOnUse" gradientTransform="matrix(1,5.55112e-17,5.55112e-17,-1,0,-0.373882)"><stop offset="0" style="stop-color:rgb(87,77,102);stop-opacity:1"/><stop offset="0.33" style="stop-color:rgb(87,77,102);stop-opacity:1"/><stop offset="1" style="stop-color:rgb(196,255,84);stop-opacity:1"/></linearGradient>
        <linearGradient id="_Linear10" x1="0" y1="0" x2="1" y2="0" gradientUnits="userSpaceOnUse" gradientTransform="matrix(1,0,0,-1,0,-0.0112196)"><stop offset="0" style="stop-color:rgb(87,77,102);stop-opacity:1"/><stop offset="1" style="stop-color:rgb(196,255,84);stop-opacity:1"/></linearGradient>
        <linearGradient id="_Linear12" x1="0" y1="0" x2="1" y2="0" gradientUnits="userSpaceOnUse" gradientTransform="matrix(1,0,0,-1,0,0.0937921)"><stop offset="0" style="stop-color:rgb(87,77,102);stop-opacity:1"/><stop offset="1" style="stop-color:rgb(196,255,84);stop-opacity:1"/></linearGradient>
        <linearGradient id="_Linear14" x1="0" y1="0" x2="1" y2="0" gradientUnits="userSpaceOnUse" gradientTransform="matrix(1,0,0,-1,0,0.132431)"><stop offset="0" style="stop-color:rgb(87,77,102);stop-opacity:1"/><stop offset="1" style="stop-color:rgb(196,255,84);stop-opacity:1"/></linearGradient>
        <linearGradient id="_Linear15" x1="0" y1="0" x2="1" y2="0" gradientUnits="userSpaceOnUse" gradientTransform="matrix(1,0,0,-1,0,-0.766299)"><stop offset="0" style="stop-color:rgb(87,77,102);stop-opacity:1"/><stop offset="1" style="stop-color:rgb(196,255,84);stop-opacity:1"/></linearGradient>
    </defs>
</svg>
